<?xml version="1.0" standalone="no"?>
<!DOCTYPE svg PUBLIC "-//W3C//DTD SVG 20010904//EN"
 "http://www.w3.org/TR/2001/REC-SVG-20010904/DTD/svg10.dtd">
<svg version="1.0" xmlns="http://www.w3.org/2000/svg"
 width="1011.000000pt" height="1011.000000pt" viewBox="0 0 1011.000000 1011.000000"
 preserveAspectRatio="xMidYMid meet">
<metadata>
Created by potrace 1.11, written by Peter Selinger 2001-2013
</metadata>
<g transform="translate(0.000000,1011.000000) scale(0.100000,-0.100000)"
fill="#000000" stroke="none">
<path d="M4965 9374 c-100 -51 -188 -117 -278 -206 -67 -67 -80 -76 -96 -66
-24 15 -89 -22 -147 -83 -23 -24 -59 -58 -80 -75 -40 -32 -54 -55 -98 -156
-15 -35 -31 -58 -40 -58 -22 0 -21 6 25 116 112 271 216 408 336 442 70 21 68
82 -3 82 -34 0 -119 -34 -130 -51 -3 -5 -21 -9 -39 -9 -21 0 -78 -20 -141 -50
-58 -27 -123 -54 -143 -60 -21 -5 -49 -18 -62 -29 -25 -19 -103 -61 -114 -61
-11 0 37 74 65 102 57 53 57 98 1 98 -45 0 -123 -98 -183 -231 -21 -46 -37
-64 -86 -98 -34 -22 -64 -46 -67 -52 -4 -6 -27 -19 -51 -29 -24 -11 -44 -24
-44 -30 0 -5 -13 -10 -29 -10 -36 0 -56 -26 -98 -130 -40 -98 -69 -198 -83
-285 -8 -43 -22 -84 -38 -108 -21 -32 -23 -41 -14 -63 19 -40 14 -106 -11
-160 -13 -27 -35 -79 -48 -116 -25 -70 -33 -80 -42 -50 -3 9 -12 34 -21 55
-16 37 -16 37 7 46 14 5 27 17 31 26 7 19 -9 55 -27 56 -7 1 -21 2 -32 3 -19
1 -20 9 -23 114 -2 79 2 133 13 174 17 66 14 93 -12 102 -29 12 -60 -20 -74
-76 -20 -81 -18 -309 5 -383 30 -99 83 -206 106 -212 13 -3 20 -14 20 -29 0
-36 -14 -36 -61 -2 -28 20 -56 31 -79 32 -32 1 -35 -1 -35 -29 0 -25 10 -36
75 -81 l75 -51 7 -96 c8 -107 23 -150 54 -155 38 -5 49 21 36 92 -17 90 -16
93 17 93 l29 0 7 -81 c8 -89 30 -182 47 -203 14 -17 57 -17 64 1 3 8 -1 49
-10 91 -21 100 -21 174 -1 181 8 4 22 32 31 63 24 81 45 132 54 126 4 -2 11
-37 14 -77 7 -62 3 -88 -25 -199 -27 -106 -30 -130 -20 -143 31 -37 71 -7 86
62 7 32 8 33 25 17 12 -11 26 -14 39 -10 26 8 26 4 1 -37 -11 -18 -29 -60 -39
-94 -16 -50 -52 -126 -111 -232 -5 -9 -28 -55 -50 -102 -37 -77 -38 -82 -13
-52 64 76 111 122 127 122 35 0 9 -177 -40 -272 -11 -20 -57 -91 -104 -159
-149 -218 -303 -348 -481 -408 -51 -17 -107 -41 -125 -53 -55 -38 -71 -101
-35 -137 21 -21 187 -76 279 -93 82 -14 170 -38 224 -61 39 -16 53 -29 79 -76
28 -47 33 -67 35 -131 1 -41 3 -83 3 -93 1 -9 21 -31 45 -48 l44 -31 -5 -118
c-5 -106 -4 -121 15 -156 12 -22 28 -67 36 -102 9 -35 24 -74 33 -87 38 -50
56 -54 264 -55 107 -1 203 -4 215 -6 63 -16 90 -212 59 -433 -10 -70 -15 -135
-12 -144 9 -23 54 -22 66 1 26 49 43 197 39 351 -3 143 -6 161 -30 213 -44 94
-54 98 -299 98 -191 0 -207 1 -223 19 -11 12 -15 27 -12 39 4 13 -5 45 -23 84
-38 80 -47 127 -41 208 l5 65 40 -1 c22 -1 122 -5 222 -9 l181 -8 26 28 c31
33 31 37 8 58 -13 12 -44 16 -137 18 -66 1 -131 -1 -145 -5 -14 -4 -74 0 -135
8 -100 13 -111 17 -132 43 -18 22 -23 40 -23 92 0 51 -6 75 -31 125 -40 80
-59 99 -127 129 -67 30 -224 77 -258 77 -44 0 -204 46 -204 59 0 9 39 26 145
65 168 62 320 191 460 391 176 252 194 296 205 522 7 149 7 152 40 204 21 32
33 63 32 79 -2 20 5 32 22 44 14 8 39 45 56 80 26 53 40 69 74 86 22 12 50 32
62 46 l20 25 13 -106 c14 -122 17 -132 42 -146 14 -7 23 -5 37 9 18 18 18 24
6 108 -8 49 -17 137 -20 197 -6 93 -5 110 10 126 40 45 220 101 322 101 39 0
44 -3 44 -22 0 -13 -14 -39 -31 -58 -118 -134 -177 -210 -220 -282 -55 -91
-61 -131 -21 -136 30 -4 47 10 73 64 36 71 139 201 255 322 l109 112 148 0
c81 0 147 -3 147 -6 0 -3 -28 -36 -61 -72 -68 -75 -105 -125 -155 -213 -38
-68 -43 -104 -16 -118 28 -15 48 3 87 77 36 68 119 182 133 182 4 0 4 -36 -2
-80 -9 -85 -2 -110 34 -110 29 0 36 20 54 155 9 72 23 136 30 143 10 11 22 5
67 -30 100 -79 172 -122 252 -147 20 -7 37 -16 37 -20 0 -4 -12 -47 -26 -95
-29 -100 -26 -136 10 -136 33 0 44 17 71 115 13 48 25 89 27 90 2 2 21 0 43
-5 22 -5 63 -10 91 -10 l50 0 1 -34 c1 -28 -3 -35 -23 -40 -14 -4 -26 -16 -30
-31 -11 -46 36 -73 70 -40 20 20 22 19 35 -13 9 -22 8 -37 -4 -71 -21 -60 -20
-98 4 -106 28 -8 48 3 62 36 7 19 17 28 26 25 11 -5 41 8 72 31 3 2 -5 17 -17
33 -27 36 -27 43 -1 98 21 42 21 46 5 72 -21 37 -20 52 4 73 36 30 20 77 -27
77 -12 0 -26 -7 -31 -16 -5 -9 -18 -14 -28 -12 -14 2 -20 13 -22 41 -3 30 -8
38 -28 43 -32 8 -54 -11 -54 -47 0 -28 -1 -29 -55 -29 -30 0 -55 3 -55 6 0 11
93 149 148 218 99 126 479 534 536 577 18 12 19 12 11 -1 -35 -57 -73 -111
-106 -145 -32 -34 -43 -60 -74 -165 -21 -69 -41 -147 -46 -175 -10 -50 -38
-125 -47 -125 -3 0 -13 7 -23 16 -21 19 -55 11 -64 -16 -7 -21 17 -85 41 -111
14 -16 14 -19 -5 -38 -25 -25 -25 -31 -8 -55 9 -12 23 -17 42 -14 26 3 30 8
33 36 2 22 -2 34 -12 38 -13 5 -13 10 4 32 18 24 19 31 8 59 -7 18 -9 36 -5
40 4 4 38 2 75 -5 l67 -12 29 38 c17 20 52 58 78 83 26 25 48 50 48 57 0 6 9
16 20 22 11 6 20 9 20 6 0 -12 -51 -100 -75 -129 -15 -18 -36 -48 -49 -67 -19
-30 -28 -35 -59 -35 -44 -1 -60 -18 -52 -59 4 -25 -3 -37 -50 -87 -34 -36 -55
-66 -55 -81 0 -13 -9 -29 -20 -36 -36 -22 -19 -72 25 -72 12 0 30 9 40 20 10
11 21 17 26 14 13 -8 49 15 49 31 0 21 29 45 54 45 31 0 51 25 48 60 -2 19 11
45 42 86 67 89 130 142 78 66 -10 -15 -33 -62 -52 -106 -35 -81 -34 -107 4
-114 26 -5 47 17 77 86 19 41 36 65 52 71 33 13 50 37 42 61 -4 13 1 29 14 46
33 42 22 84 -21 84 -10 0 -18 5 -18 10 0 6 10 8 24 4 18 -4 35 2 59 20 18 14
36 23 40 20 8 -8 -3 -35 -13 -29 -4 2 -15 -2 -25 -9 -17 -12 -16 -16 15 -59
33 -47 33 -47 14 -69 -10 -13 -22 -25 -25 -28 -23 -21 -119 -158 -119 -172 0
-37 80 -64 108 -36 7 7 12 25 12 41 0 19 14 46 42 81 23 28 43 53 45 55 5 8
35 -23 50 -53 10 -19 15 -55 15 -97 -1 -67 0 -68 28 -74 41 -9 52 -27 44 -69
-12 -65 42 -92 74 -37 19 34 42 43 92 35 31 -4 174 25 200 41 18 11 10 44 -13
60 -16 10 -35 13 -55 9 -18 -4 -32 -3 -32 0 0 4 13 26 29 49 77 112 144 288
162 424 10 73 9 87 -4 100 -21 21 -63 9 -71 -19 -3 -13 -6 -35 -6 -50 0 -14
-3 -33 -6 -41 -5 -13 -8 -13 -25 4 -10 10 -25 19 -32 19 -21 0 -50 -37 -44
-54 4 -10 -2 -17 -16 -22 -12 -3 -47 -25 -77 -47 -49 -37 -53 -38 -37 -14 41
63 46 74 58 114 10 36 28 56 116 128 56 47 103 92 103 99 0 23 -31 48 -49 41
-9 -4 -21 -9 -27 -12 -27 -10 -57 327 -43 472 4 50 6 97 3 107 -10 34 -64 29
-78 -8 -21 -55 -15 -346 11 -491 5 -31 3 -34 -43 -53 -26 -11 -51 -17 -55 -13
-4 4 -22 50 -39 102 -30 86 -32 96 -19 133 16 48 4 73 -34 73 -23 1 -32 13
-76 100 -92 187 -148 268 -183 263 -36 -5 -46 -34 -25 -70 16 -29 17 -33 2
-47 -12 -12 -18 -13 -23 -4 -4 6 -26 13 -49 15 l-42 3 29 84 c35 99 65 153
115 204 39 40 41 53 9 73 -46 30 -117 -42 -178 -178 -14 -32 -29 -59 -33 -59
-64 -12 -85 -5 -119 35 -20 23 -45 58 -55 79 -18 34 -24 38 -52 35 -59 -6 -46
-59 38 -163 25 -30 45 -61 45 -68 0 -7 -12 -27 -27 -45 -26 -29 -29 -31 -48
-17 -19 15 -19 18 -4 60 14 39 14 47 2 65 -19 27 -32 25 -69 -11 l-33 -32 -50
38 c-28 20 -51 39 -51 41 0 2 9 13 20 24 23 23 26 50 8 68 -18 18 -38 15 -75
-14 -32 -24 -35 -25 -58 -10 -14 9 -25 20 -25 24 0 6 40 20 165 54 54 15 70
43 40 68 -14 11 -28 11 -88 -4 -40 -10 -78 -20 -86 -23 -9 -4 -12 -1 -9 8 3 8
2 24 -3 37 -17 45 -85 16 -125 -53 -11 -20 -13 -19 -70 9 -103 51 -215 71
-242 44 -16 -16 -15 -55 1 -65 6 -4 39 -10 73 -14 33 -3 85 -17 115 -31 l54
-25 -75 -13 c-72 -12 -137 -32 -212 -64 l-37 -16 6 35 c10 63 -42 61 -122 -5
-46 -39 -49 -40 -57 -21 -5 14 -16 21 -32 21 -37 0 -23 23 30 51 48 26 63 51
44 74 -26 31 -97 8 -152 -49 -20 -21 -52 -68 -72 -106 -20 -38 -40 -70 -44
-72 -4 -2 -28 -28 -55 -59 -36 -43 -54 -56 -74 -56 -16 0 -32 -8 -38 -18 -5
-10 -24 -39 -42 -64 -40 -57 -76 -130 -98 -199 -10 -29 -20 -51 -22 -48 -6 6
24 177 37 210 5 15 10 39 10 53 0 27 49 131 82 173 106 135 233 242 367 310
92 46 107 60 91 89 -16 30 -54 26 -135 -15z m-703 -306 c-16 -29 -50 -105 -76
-168 -88 -212 -100 -231 -170 -283 -118 -87 -233 -211 -347 -377 l-64 -93 -3
62 c-3 56 1 69 34 129 55 98 80 133 105 146 14 6 28 27 34 47 13 48 123 177
202 240 47 37 63 56 63 74 0 18 -7 26 -25 31 -14 3 -25 10 -25 14 0 24 257
229 287 230 8 0 2 -20 -15 -52z m1468 -8 l25 -19 -35 -68 -35 -68 -3 74 c-4
106 2 117 48 81z m-401 -113 c-53 -51 -98 -96 -100 -102 -2 -5 -35 -37 -72
-69 l-69 -60 -45 47 c-44 46 -45 48 -28 67 23 25 151 108 225 145 69 35 173
75 180 68 3 -2 -38 -46 -91 -96z m-345 8 c-26 -30 -51 -55 -56 -55 -17 0 -7
48 15 67 69 63 98 54 41 -12z m603 -141 c-177 -170 -238 -224 -218 -194 12 19
36 56 52 83 18 27 41 50 54 53 13 3 27 13 30 22 4 10 22 59 41 110 18 51 37
99 41 105 5 7 11 -26 15 -73 6 -79 5 -87 -15 -106z m-1079 115 c-16 -34 -33
-85 -38 -113 -5 -28 -13 -64 -18 -81 -5 -16 -15 -82 -22 -145 l-12 -115 -72
-67 c-82 -77 -84 -76 -66 57 17 126 30 177 52 199 13 12 18 26 14 42 -7 27 14
74 66 145 40 56 111 138 119 139 3 0 -7 -28 -23 -61z m1722 -39 c0 -18 -45
-58 -55 -49 -4 5 43 69 51 69 2 0 4 -9 4 -20z m-770 7 c0 -20 -35 -97 -44 -97
-7 0 -25 -14 -42 -31 -19 -20 -35 -28 -48 -25 -31 8 -100 -28 -131 -68 -19
-26 -31 -34 -38 -27 -14 14 24 54 132 140 107 83 171 124 171 108z m-1714 -80
c-9 -30 -16 -66 -16 -79 0 -12 -9 -34 -20 -48 -11 -14 -20 -30 -20 -36 0 -6
-7 -17 -15 -24 -13 -11 -15 -3 -15 58 0 39 5 83 10 98 10 26 80 98 88 90 2 -3
-3 -29 -12 -59z m2288 18 c13 -10 17 -21 12 -39 -4 -15 -1 -30 9 -39 12 -13
11 -18 -11 -43 -85 -95 -214 -290 -214 -322 0 -26 28 -44 51 -31 9 4 47 54 84
110 37 56 97 135 132 175 60 69 67 74 104 74 24 0 39 -5 39 -12 0 -7 3 -30 7
-52 5 -35 5 -38 -13 -28 -12 6 -28 6 -43 0 -53 -19 -500 -501 -629 -675 -25
-35 -48 -61 -50 -58 -10 10 112 292 139 320 6 6 31 17 57 25 36 12 48 20 50
39 5 31 -11 45 -50 46 -17 0 -33 5 -35 11 -5 16 36 64 56 64 25 0 43 23 89
115 22 44 59 102 81 129 28 33 41 58 41 78 0 33 49 128 65 128 6 0 18 -7 29
-15z m570 -125 l67 -140 -60 -182 c-32 -101 -62 -176 -65 -168 -3 8 -14 51
-25 95 -11 44 -27 85 -36 91 -8 6 -15 13 -15 16 0 2 34 38 75 79 61 61 73 79
68 98 -7 27 -27 37 -53 25 -14 -7 -180 -158 -298 -272 -81 -78 -123 -114 -127
-110 -9 8 17 72 35 88 23 20 153 205 265 380 50 77 93 140 96 140 3 0 36 -63
73 -140z m-210 92 c-10 -15 -27 -42 -38 -59 -12 -18 -25 -33 -29 -33 -4 0 -7
24 -5 53 3 50 5 52 38 63 46 15 55 8 34 -24z m-557 -68 c-25 -44 -104 -160
-177 -259 -137 -187 -168 -225 -182 -225 -4 0 -41 -16 -82 -36 -41 -20 -81
-34 -89 -31 -13 5 -47 115 -47 153 0 24 54 88 204 242 183 187 191 179 30 -35
-99 -131 -111 -163 -72 -184 20 -11 26 -8 60 31 34 38 39 41 53 26 9 -9 20
-16 25 -16 23 0 51 43 75 115 34 99 55 140 98 187 50 54 141 130 145 120 1 -5
-17 -44 -41 -88z m-997 54 c0 -3 -22 -26 -49 -50 -26 -24 -51 -55 -55 -70 -3
-16 -11 -28 -16 -28 -12 0 22 88 55 140 23 36 27 39 45 28 11 -7 20 -16 20
-20z m158 -61 c23 -23 42 -47 42 -53 0 -12 -86 -95 -121 -117 -15 -9 -37 -32
-49 -51 -12 -20 -25 -36 -30 -36 -12 0 -17 109 -8 145 8 30 102 155 116 155 4
0 27 -19 50 -43z m-1390 -162 c32 -14 28 -21 -25 -45 -26 -11 -62 -32 -80 -46
-31 -24 -33 -24 -33 -5 0 28 77 260 92 279 11 13 14 -2 18 -79 5 -85 7 -95 28
-104z m551 -51 c-48 -152 -46 -146 -68 -132 -17 10 -24 9 -46 -12 -33 -31 -30
-22 37 118 35 72 58 106 76 116 15 8 28 13 30 11 2 -2 -11 -47 -29 -101z m968
80 c8 -23 -23 -114 -50 -144 -12 -14 -52 -44 -88 -68 -37 -23 -75 -52 -84 -62
-40 -44 -47 -10 -12 62 12 26 59 88 105 138 82 89 116 108 129 74z m-372 -154
c8 -69 19 -49 -122 -215 -46 -53 -83 -100 -83 -104 0 -4 6 -15 13 -25 21 -29
46 -13 125 80 41 47 76 84 78 82 2 -2 -1 -20 -6 -39 -7 -25 -36 -59 -102 -120
-109 -101 -128 -111 -128 -69 0 32 57 327 66 342 3 5 12 7 19 4 19 -7 47 16
85 73 19 28 38 51 42 51 3 0 9 -27 13 -60z m-802 -27 c-10 -22 -37 -62 -59
-89 -22 -27 -59 -81 -82 -120 -34 -59 -47 -72 -78 -82 -21 -6 -40 -9 -42 -7
-6 6 19 43 99 150 76 101 166 201 174 193 3 -3 -3 -23 -12 -45z m2792 -43 c10
-33 16 -61 14 -63 -44 -30 -92 -57 -96 -54 -6 7 49 177 57 177 4 0 15 -27 25
-60z m-3241 -45 c-16 -24 -74 -63 -74 -50 0 31 82 115 88 90 2 -8 -4 -26 -14
-40z m2946 -79 c17 -66 27 -123 23 -127 -41 -38 -97 -78 -103 -74 -5 3 7 38
26 79 20 41 32 80 28 89 -17 45 -76 26 -223 -72 -51 -34 -95 -60 -98 -58 -2 2
67 70 154 150 87 80 159 142 160 139 2 -4 16 -61 33 -126z m-2041 2 c1 -102 9
-157 23 -175 5 -6 8 -24 6 -39 -3 -27 -5 -27 -78 -31 -91 -4 -189 -27 -252
-59 -26 -13 -50 -24 -53 -24 -13 0 -3 58 16 90 23 38 313 330 327 330 6 0 10
-42 11 -92z m-403 25 c-3 -21 -13 -86 -21 -144 -14 -106 -15 -107 -74 -190
-33 -46 -77 -117 -97 -156 -32 -62 -36 -77 -26 -97 15 -34 -4 -82 -62 -155
-48 -61 -60 -73 -50 -47 3 8 -2 38 -10 67 -9 29 -16 66 -16 83 0 41 57 184
138 346 60 118 71 135 93 135 41 0 55 17 89 108 19 48 36 87 38 87 3 0 2 -17
-2 -37z m967 -75 c-13 -46 -27 -90 -30 -98 -2 -8 -13 11 -24 45 l-19 60 43 37
c23 21 45 38 48 38 4 0 -4 -37 -18 -82z m231 8 c9 -30 16 -59 16 -65 0 -12
-60 -52 -69 -46 -4 2 -6 28 -5 59 1 53 18 106 35 106 4 0 15 -24 23 -54z
m1491 -71 c-80 -74 -94 -80 -76 -32 9 24 122 107 146 107 6 -1 -26 -34 -70
-75z m-2605 30 c0 -8 -4 -15 -10 -15 -5 0 -10 7 -10 15 0 8 5 15 10 15 6 0 10
-7 10 -15z m755 -54 c3 -16 15 -37 26 -47 17 -15 24 -16 40 -6 15 10 19 10 19
-1 0 -28 -38 -55 -79 -55 -41 -1 -41 -1 -41 37 0 50 10 101 20 101 5 0 11 -13
15 -29z m-1331 -17 c15 -38 6 -91 -19 -114 l-25 -23 0 26 c0 39 21 127 30 127
4 0 11 -7 14 -16z m1858 -11 c-6 -33 21 -57 49 -42 24 12 24 2 4 -65 -8 -27
-15 -63 -15 -81 0 -39 -29 -125 -42 -125 -27 0 -161 73 -221 121 -67 53 -67
54 -47 71 37 30 154 91 157 82 17 -48 61 -109 80 -112 38 -6 48 31 24 88 -24
56 -26 76 -8 83 22 9 24 7 19 -20z m-333 -66 c-32 -26 -35 -7 -7 45 l23 43 3
-35 c3 -26 -2 -39 -19 -53z m-317 -9 c-6 -6 -15 -7 -22 -3 -8 5 -6 13 7 27 16
18 18 19 21 3 2 -9 -1 -22 -6 -27z m-1357 -93 c-11 -76 -23 -121 -41 -151 -26
-44 -50 -60 -40 -26 3 9 10 40 16 67 16 73 73 242 77 228 2 -6 -3 -60 -12
-118z m3682 65 c-11 -41 -21 -50 -111 -112 -102 -68 -122 -88 -112 -114 9 -23
47 -16 96 16 49 33 57 32 39 -2 -16 -31 -139 -208 -144 -208 -3 0 -2 20 1 44
6 38 4 45 -14 50 -30 10 -60 -9 -75 -47 -13 -31 -14 -32 -25 -10 -10 18 -7 29
20 75 82 133 154 213 241 267 20 12 39 32 43 44 6 23 47 61 52 49 1 -4 -4 -27
-11 -52z m-3337 37 c0 -2 -15 -35 -34 -73 -18 -38 -36 -79 -40 -91 -4 -13 -11
-23 -16 -23 -11 0 -17 118 -7 136 11 19 97 65 97 51z m2950 -77 c11 -11 20
-24 20 -28 0 -4 -19 -27 -42 -50 l-43 -41 0 48 c0 34 6 55 19 70 23 26 21 26
46 1z m-2690 -241 c0 -56 -1 -59 -16 -44 -11 10 -25 14 -40 11 -28 -7 -29 -4
-9 34 12 23 50 60 62 60 2 0 3 -27 3 -61z m1789 -75 c6 -5 -20 -64 -28 -64 -7
0 -41 64 -41 76 0 6 62 -5 69 -12z"/>
<path d="M3430 8984 c-34 -29 -63 -80 -91 -163 -23 -65 -24 -94 -4 -111 30
-25 52 -2 89 94 22 57 48 103 66 121 34 33 37 47 14 69 -22 22 -38 20 -74 -10z"/>
<path d="M2970 8656 c-94 -67 -171 -196 -213 -361 -23 -87 -31 -134 -52 -303
-5 -41 2 -60 26 -73 29 -15 59 21 59 74 0 58 25 203 50 296 37 133 123 268
196 307 32 16 39 25 39 49 0 27 -4 30 -35 33 -24 2 -46 -5 -70 -22z"/>
<path d="M7187 8333 c-10 -9 -9 -55 2 -89 5 -16 14 -55 21 -87 12 -59 33 -83
64 -71 9 3 19 16 21 28 8 29 -21 174 -40 202 -15 23 -53 32 -68 17z"/>
<path d="M6363 7590 c-15 -6 -23 -18 -23 -33 0 -33 24 -51 55 -43 19 5 25 13
25 34 0 26 -16 53 -29 51 -4 0 -16 -4 -28 -9z"/>
<path d="M5870 7525 c0 -11 50 -36 61 -29 8 4 4 11 -12 20 -24 13 -49 18 -49
9z"/>
<path d="M6125 7517 c-13 -11 -17 -22 -12 -44 6 -28 4 -31 -24 -35 -25 -4 -30
-2 -26 13 8 31 -21 61 -56 57 -28 -3 -32 -7 -35 -36 -2 -18 -12 -42 -23 -53
-24 -24 -24 -41 2 -65 16 -15 24 -16 39 -6 11 7 29 12 40 12 14 0 20 7 21 23
l0 22 9 -22 c6 -14 18 -23 30 -23 11 0 34 -10 50 -21 l28 -22 36 23 c20 12 36
26 36 30 0 5 -21 10 -47 12 -41 3 -47 6 -54 31 -6 24 -5 27 17 27 36 0 54 43
29 70 -21 23 -34 25 -60 7z"/>
<path d="M6517 7503 c-16 -15 -5 -49 24 -79 29 -30 30 -34 15 -49 -31 -32 -13
-75 31 -75 16 0 27 8 33 25 11 29 10 28 44 15 36 -13 56 -3 56 31 0 21 -10 35
-37 56 -21 15 -40 32 -42 37 -11 27 -44 46 -79 46 -21 0 -42 -3 -45 -7z"/>
<path d="M6268 7459 c-21 -12 -24 -49 -6 -67 39 -39 100 17 63 58 -20 22 -32
24 -57 9z"/>
<path d="M6362 7408 c-21 -21 -7 -68 20 -68 4 0 8 18 8 40 0 41 -7 49 -28 28z"/>
<path d="M6930 7393 c-99 -34 -220 -134 -220 -181 0 -46 71 -55 85 -11 4 11
22 27 40 35 19 8 44 24 57 37 13 13 46 32 73 42 70 25 81 38 67 70 -14 29 -36
31 -102 8z"/>
<path d="M6462 7328 c-16 -16 -15 -53 3 -68 33 -27 81 15 64 58 -9 24 -47 30
-67 10z"/>
<path d="M5810 7310 c-17 -33 4 -62 43 -58 27 3 33 8 35 32 2 16 -2 32 -10 37
-23 15 -57 10 -68 -11z"/>
<path d="M6182 7296 c-9 -20 -8 -29 7 -48 16 -20 22 -21 45 -10 44 20 30 82
-19 82 -13 0 -26 -10 -33 -24z"/>
<path d="M6597 7282 c-30 -33 -15 -72 28 -72 43 0 59 44 27 73 -24 22 -35 21
-55 -1z"/>
<path d="M6037 7243 c-11 -11 -8 -48 5 -61 20 -20 58 -14 67 11 12 32 -4 57
-38 57 -15 0 -31 -3 -34 -7z"/>
<path d="M6362 7231 c-18 -11 -11 -61 11 -75 22 -14 51 3 55 33 6 40 -32 64
-66 42z"/>
<path d="M4410 7209 c-91 -4 -176 -13 -207 -22 -28 -8 -98 -18 -155 -22 -56
-4 -111 -11 -120 -16 -20 -11 -24 -54 -6 -65 22 -14 202 -3 297 19 69 15 140
22 253 24 169 4 186 10 174 57 -8 30 -31 33 -236 25z"/>
<path d="M5927 7208 c-31 -17 -18 -78 17 -78 33 0 48 15 44 45 -3 31 -34 48
-61 33z"/>
<path d="M5666 7174 c-9 -8 -16 -22 -16 -29 0 -7 7 -21 16 -29 30 -30 74 -13
74 29 0 42 -44 59 -74 29z"/>
<path d="M6652 7168 c-20 -20 -14 -43 26 -87 40 -44 63 -47 83 -10 10 19 -3
59 -19 59 -4 0 -12 10 -17 23 -11 25 -54 34 -73 15z"/>
<path d="M6482 7158 c-28 -28 -3 -72 39 -66 30 4 47 33 33 56 -14 21 -55 27
-72 10z"/>
<path d="M6192 7118 c-31 -31 3 -87 43 -72 22 9 35 45 23 67 -10 20 -48 23
-66 5z"/>
<path d="M6903 7123 c-29 -6 -30 -38 -3 -53 33 -17 60 -3 60 31 0 30 -5 32
-57 22z"/>
<path d="M6037 7039 c-60 -68 -74 -96 -61 -117 28 -43 72 -18 141 80 24 36 25
39 9 63 -9 14 -23 25 -30 25 -8 0 -35 -23 -59 -51z"/>
<path d="M5650 7010 c-14 -26 -4 -57 20 -65 44 -14 80 41 48 73 -19 19 -56 14
-68 -8z"/>
<path d="M5860 6985 c-16 -19 -5 -61 17 -67 25 -7 42 1 53 23 23 43 -39 82
-70 44z"/>
<path d="M6275 6943 c-24 -24 -46 -43 -49 -43 -3 0 -6 10 -8 23 -2 17 -11 23
-35 25 -38 4 -60 -25 -44 -57 12 -21 48 -34 57 -20 10 17 24 9 24 -16 0 -14
-8 -29 -21 -35 -27 -15 -102 13 -124 47 -13 19 -24 23 -53 22 -20 -2 -46 2
-57 8 -37 19 -75 -10 -75 -58 0 -34 24 -54 62 -51 35 3 59 -13 51 -34 -3 -8
-2 -26 1 -40 6 -21 12 -25 38 -22 25 2 34 9 38 28 5 23 11 26 41 22 16 -3 0
-44 -25 -67 -22 -19 -52 -92 -43 -101 9 -10 63 19 121 65 63 49 146 107 220
151 28 17 41 31 38 43 -3 14 4 17 42 17 47 0 86 -24 86 -54 0 -22 29 -41 42
-28 7 7 15 12 20 12 18 0 38 -109 38 -206 l0 -103 -33 -25 c-18 -14 -74 -45
-123 -70 -165 -81 -216 -137 -228 -248 -5 -50 -3 -60 15 -76 11 -11 41 -25 67
-32 69 -17 77 -23 80 -63 3 -33 0 -38 -50 -70 -29 -18 -69 -53 -88 -76 -19
-23 -53 -63 -76 -89 -72 -84 -169 -205 -216 -272 -124 -175 -238 -489 -268
-735 -17 -134 -17 -353 -2 -382 13 -24 55 -32 67 -13 3 5 7 89 9 187 5 213 22
320 82 500 80 243 130 333 299 541 179 221 189 232 245 269 73 47 90 69 90
120 0 79 -33 130 -107 163 -53 23 -61 43 -38 86 21 40 62 68 175 121 91 42
152 89 176 134 22 43 18 184 -6 234 -11 23 -19 62 -20 91 0 57 -34 120 -90
167 -60 51 -80 57 -194 55 l-106 -2 -45 -43z"/>
<path d="M4415 6735 c-27 -7 -79 -22 -115 -35 -49 -16 -82 -21 -134 -18 -61 3
-70 1 -83 -19 -13 -19 -12 -24 5 -41 42 -42 155 -38 272 8 29 11 86 23 127 27
88 7 118 27 104 65 -7 20 -16 23 -67 25 -32 0 -81 -5 -109 -12z"/>
<path d="M6156 6604 c-21 -21 -20 -37 3 -58 25 -23 59 -13 67 20 12 46 -37 72
-70 38z"/>
<path d="M6274 2481 c-68 -42 -174 -204 -248 -379 -112 -266 -197 -733 -184
-1015 3 -78 8 -102 25 -124 34 -47 76 -65 167 -70 94 -6 126 4 126 42 0 34
-27 45 -112 45 -116 0 -118 3 -118 162 0 125 7 213 31 390 12 93 78 356 114
458 66 183 180 375 253 423 35 24 43 34 40 56 -2 21 -9 27 -33 29 -17 1 -44
-6 -61 -17z"/>
<path d="M1845 2432 c-147 -44 -262 -119 -397 -260 -236 -246 -462 -704 -564
-1142 -33 -140 -43 -300 -21 -318 19 -16 53 -8 61 15 4 9 11 61 17 117 25 245
131 568 278 851 115 220 193 332 319 454 92 88 163 137 257 177 191 80 310 5
415 -262 42 -107 50 -131 91 -283 27 -100 64 -303 79 -431 15 -133 28 -160 78
-160 26 0 29 7 67 145 87 320 305 716 511 927 67 68 108 89 190 96 52 4 68 1
97 -17 46 -28 121 -109 146 -158 71 -141 83 -238 79 -644 -3 -256 -6 -301 -22
-346 -22 -61 -11 -86 33 -81 21 2 31 14 51 63 l25 60 -1 365 c-2 416 -6 442
-78 594 -37 76 -57 104 -119 163 -61 57 -84 73 -125 83 -94 22 -225 -12 -297
-78 -39 -36 -143 -157 -192 -224 -127 -173 -280 -472 -351 -683 -12 -38 -16
-28 -36 100 -17 104 -52 253 -87 365 -11 36 -24 81 -30 100 -19 60 -81 193
-116 248 -91 143 -223 203 -358 164z"/>
<path d="M4560 2430 c-16 -16 -20 -33 -20 -87 0 -88 14 -135 52 -179 36 -41
77 -64 113 -64 35 0 165 61 190 90 28 31 26 102 -3 162 -30 60 -74 78 -147 59
-44 -11 -48 -10 -76 14 -37 30 -82 32 -109 5z"/>
<path d="M4621 1774 c-11 -15 -25 -43 -31 -63 -15 -51 -64 -300 -91 -464 -26
-149 -23 -169 23 -175 32 -4 41 19 63 163 27 176 72 396 90 445 26 69 28 89
15 105 -19 23 -46 18 -69 -11z"/>
<path d="M7125 1786 c-93 -18 -159 -60 -216 -136 -63 -82 -73 -120 -66 -245 5
-114 21 -159 66 -198 30 -25 40 -27 116 -27 167 0 280 82 366 264 46 98 39
203 -20 288 -46 67 -111 81 -246 54z m162 -84 c16 -10 39 -67 47 -118 6 -32 2
-53 -17 -95 -55 -123 -136 -198 -234 -219 -126 -27 -153 1 -153 166 0 99 0
100 29 122 16 12 34 36 40 55 12 36 49 62 115 83 46 14 154 18 173 6z"/>
</g>
</svg>
